<svg width="30" height="30" viewBox="0 0 30 30" fill="none" xmlns="http://www.w3.org/2000/svg">
<path d="M24.9588 7.13425L23.7073 2.46135L19.4545 3.64421L17.6828 0L3.55209 7.13425H-0.000244141V30H28.0704V23.8369H29.9998V13.1931H28.0703V7.13425H24.9588ZM22.2313 5.09463L22.7776 7.13428H21.1512H18.8029H14.8981L18.3378 6.17756L20.4063 5.60221L22.2313 5.09463ZM25.9661 27.8557H2.10396V16.1768V12.1048V11.7821V9.58141V9.27862H3.19261H4.04475H7.18843H19.8454H22.1937H23.352H24.4425H25.5331H25.9661V10.8955V13.193H25.4909H24.4003H21.6819H16.942H15.2333V14.0557V16.4488V16.725V17.8364V18.9478V23.8368H25.9662V27.8556H25.9661V27.8557ZM27.8955 21.6925H27.0182H25.9661H17.3375V18.3626V17.2512V16.1398V15.3865V15.3374H17.4346H20.2223H24.2181H25.9662H27.0183H27.1558H27.8955V21.6925ZM16.7315 2.87338L17.386 4.21952L9.9917 6.27613L16.7315 2.87338Z" fill="white"/>
<path d="M20.7832 18.636V19.1874V21.6688H23.7593V18.636H22.7656H20.7832Z" fill="white"/>
</svg>
