<svg width="30" height="30" viewBox="0 0 30 30" fill="none" xmlns="http://www.w3.org/2000/svg">
<path d="M30 0H0V30H30V0Z" fill="white" fill-opacity="0.01"/>
<path d="M27.3598 13.1211C26.5459 7.72216 22.2789 3.45481 16.8802 2.64038M13.1098 2.64189C7.10319 3.55299 2.5 8.73891 2.5 14.9999C2.5 21.2632 7.10656 26.4507 13.1164 27.3589C13.7307 27.4518 14.3598 27.4999 15 27.4999C15.6381 27.4999 16.265 27.4521 16.8774 27.3598C22.2786 26.5463 26.5476 22.2767 27.3603 16.8752" stroke="white" stroke-width="2" stroke-linecap="round" stroke-linejoin="round"/>
<path d="M15 10C12.2386 10 10 12.2386 10 15C10 17.7614 12.2386 20 15 20C17.7614 20 20 17.7614 20 15C20 12.2386 17.7614 10 15 10Z" stroke="white" stroke-width="2" stroke-linejoin="round"/>
</svg>
