<svg width="30" height="33" viewBox="0 0 30 33" fill="none" xmlns="http://www.w3.org/2000/svg">
<g clip-path="url(#clip0_2291_8034)">
<path d="M1.4707 23.4922V23.3565V10.1081C1.4707 9.58016 1.75244 9.09322 2.2077 8.83437L2.23395 8.81945L14.3544 1.92795L14.4466 1.87557C14.7902 1.68015 15.21 1.68015 15.5536 1.87557L27.8708 8.8789C28.2777 9.11024 28.5295 9.54544 28.5295 10.0173V10.1081V23.3565V23.4922C28.5295 23.9751 28.2769 24.422 27.8654 24.6671L15.6411 31.9492C15.2455 32.1848 14.7547 32.1848 14.3592 31.9492L2.13478 24.6671C1.72328 24.422 1.4707 23.9751 1.4707 23.4922Z" stroke="white" stroke-width="2"/>
<path d="M15 32.3311V16.9459" stroke="white" stroke-width="2"/>
<path d="M15.0001 16.946L1.4707 9.25342" stroke="white" stroke-width="2"/>
<path d="M28.5294 9.25342L15 16.946" stroke="white" stroke-width="2"/>
</g>
<defs>
<clipPath id="clip0_2291_8034">
<rect width="30" height="33" fill="white"/>
</clipPath>
</defs>
</svg>
