<svg width="30" height="30" viewBox="0 0 30 30" fill="none" xmlns="http://www.w3.org/2000/svg">
<path d="M22.1429 14.2857C26.4822 14.2857 30 17.8035 30 22.1429C30 26.4822 26.4822 30 22.1429 30C17.8035 30 14.2857 26.4822 14.2857 22.1429C14.2857 17.8035 17.8035 14.2857 22.1429 14.2857ZM2.85714 15.7129L15.442 15.7145C13.841 17.3829 12.8571 19.648 12.8571 22.1429C12.8571 23.6962 13.2386 25.1605 13.9129 26.4472C12.4124 26.9471 10.758 27.1429 9.28571 27.1429C5.39695 27.1429 0.235279 25.7771 0.00779152 21.0424L0 20.7143V18.57C0 16.9929 1.28 15.7129 2.85714 15.7129ZM22.1429 17.1451L22.0145 17.1566C21.7229 17.2095 21.493 17.4394 21.4401 17.731L21.4286 17.8594V21.428L17.8571 21.4286L17.7288 21.4401C17.4372 21.493 17.2073 21.7229 17.1544 22.0145L17.1429 22.1429L17.1544 22.2713C17.2073 22.5628 17.4372 22.7927 17.7288 22.8456L17.8571 22.8571L21.4286 22.8565V26.4286L21.4401 26.557C21.493 26.8485 21.7229 27.0784 22.0145 27.1313L22.1429 27.1429L22.2713 27.1313C22.5628 27.0784 22.7927 26.8485 22.8456 26.557L22.8571 26.4286V22.8565L26.4286 22.8571L26.557 22.8456C26.8485 22.7927 27.0784 22.5628 27.1313 22.2713L27.1429 22.1429L27.1313 22.0145C27.0784 21.7229 26.8485 21.493 26.557 21.4401L26.4286 21.4286L22.8571 21.428V17.8594L22.8456 17.731C22.7927 17.4394 22.5628 17.2095 22.2713 17.1566L22.1429 17.1451ZM9.28571 0C12.8357 0 15.7143 2.87857 15.7143 6.42857C15.7143 9.97857 12.8357 12.8571 9.28571 12.8571C5.73571 12.8571 2.85714 9.97857 2.85714 6.42857C2.85714 2.87857 5.73571 0 9.28571 0ZM22.1429 2.85714C24.9043 2.85714 27.1429 5.09571 27.1429 7.85714C27.1429 10.6186 24.9043 12.8571 22.1429 12.8571C19.3814 12.8571 17.1429 10.6186 17.1429 7.85714C17.1429 5.09571 19.3814 2.85714 22.1429 2.85714Z" fill="white"/>
</svg>
