<svg width="30" height="25" viewBox="0 0 30 25" fill="none" xmlns="http://www.w3.org/2000/svg">
<path d="M15.8027 25C15.4682 25 15.301 24.8323 15.301 24.497V23.5412C15.301 23.2059 15.4682 23.0047 15.8027 22.9376L16.4047 22.7364C17.2408 22.5352 17.6756 22.2669 17.709 21.9316C17.7425 21.5627 17.4916 21.0262 16.9565 20.3219L3.56187 4.07445C3.19398 3.6385 2.87625 3.31992 2.6087 3.11871C2.37458 2.88397 2.12375 2.71629 1.85619 2.61569L0.501672 2.11267C0.200669 2.01207 0.0501672 1.79409 0.0501672 1.45875V0.503018C0.0501672 0.167673 0.217391 0 0.551839 0H14.097C14.4314 0 14.5987 0.167673 14.5987 0.503018V1.45875C14.5987 1.79409 14.4314 1.9953 14.097 2.06237L13.5451 2.16298C12.709 2.33065 12.2742 2.59892 12.2408 2.9678C12.2408 3.33668 12.4916 3.85647 12.9933 4.52716L26.5385 20.9256C26.9064 21.395 27.2742 21.7639 27.6421 22.0322C28.01 22.2669 28.4114 22.4849 28.8462 22.6861L29.5485 22.8873C29.8495 23.0215 30 23.2562 30 23.5915V24.497C30 24.8323 29.8328 25 29.4983 25H15.8027ZM0.501672 25C0.167224 25 0 24.8323 0 24.497V23.5412C0 23.2059 0.167224 23.0047 0.501672 22.9376L2.30769 22.4346C2.67559 22.3005 3.02676 22.1328 3.3612 21.9316C3.69565 21.6968 4.01338 21.395 4.31438 21.0262L12.4916 11.7203H16.6054L9.83278 20.3219C9.19732 21.1268 8.94649 21.7136 9.08027 22.0825C9.24749 22.4514 9.74916 22.7364 10.5853 22.9376H10.7358C11.0368 23.0382 11.1873 23.2562 11.1873 23.5915V24.497C11.1873 24.8323 11.0201 25 10.6856 25H0.501672ZM19.515 4.72837C20.1839 3.92354 20.4348 3.33668 20.2676 2.9678C20.1003 2.59892 19.5987 2.31388 18.7625 2.11267L18.612 2.06237C18.311 1.96177 18.1605 1.76056 18.1605 1.45875V0.503018C18.1605 0.167673 18.3278 0 18.6622 0H28.8462C29.1806 0 29.3478 0.167673 29.3478 0.503018V1.45875C29.3478 1.79409 29.1973 1.9953 28.8963 2.06237L27.6421 2.41449C27.107 2.58216 26.6388 2.80013 26.2375 3.06841C25.8696 3.30315 25.5184 3.60496 25.1839 3.97384L18.0602 11.7706H13.796L19.515 4.72837Z" fill="white"/>
</svg>
