<svg width="31" height="31" viewBox="0 0 31 31" fill="none" xmlns="http://www.w3.org/2000/svg">
<path fill-rule="evenodd" clip-rule="evenodd" d="M5.77271 25.2016V21.3637C5.77271 16.4207 9.52985 12.3552 14.3441 11.8673V11.0065C14.3441 10.5762 14.693 10.2273 15.1234 10.2273C15.5537 10.2273 15.9026 10.5762 15.9026 11.0065V11.8358C20.9022 12.1378 24.8636 16.2881 24.8636 21.3637V24.7609C22.5059 27.5516 19.0167 29.3182 15.1234 29.3182C11.4391 29.3182 8.11684 27.7363 5.77271 25.2016ZM13.9545 20.1705C13.9545 21.7081 12.7335 22.9546 11.2273 22.9546C9.72102 22.9546 8.49998 21.7081 8.49998 20.1705C8.49998 18.6329 9.72102 17.3864 11.2273 17.3864C12.7335 17.3864 13.9545 18.6329 13.9545 20.1705ZM19.4091 22.9546C20.9153 22.9546 22.1363 21.7081 22.1363 20.1705C22.1363 18.6329 20.9153 17.3864 19.4091 17.3864C17.9028 17.3864 16.6818 18.6329 16.6818 20.1705C16.6818 21.7081 17.9028 22.9546 19.4091 22.9546Z" fill="white"/>
<path d="M30.659 12.2444C30.659 13.3741 29.7432 14.2899 28.6136 14.2899C27.4839 14.2899 26.5681 13.3741 26.5681 12.2444C26.5681 11.1148 27.4839 10.199 28.6136 10.199C29.7432 10.199 30.659 11.1148 30.659 12.2444Z" fill="white"/>
<circle cx="11.909" cy="2.04545" r="2.04545" fill="white"/>
<path d="M28.8016 13.4789C27.9138 7.58916 23.2589 2.93388 17.3694 2.04541M13.2562 2.04705C6.70354 3.04099 1.68188 8.69835 1.68188 15.5285C1.68188 22.3612 6.70723 28.0203 13.2635 29.0111C13.9336 29.1124 14.6198 29.1649 15.3182 29.1649C16.0143 29.1649 16.6982 29.1127 17.3663 29.0121C23.2586 28.1246 27.9157 23.4669 28.8022 17.5743" stroke="white" stroke-width="2" stroke-linecap="round" stroke-linejoin="round"/>
</svg>
