<svg width="30" height="30" viewBox="0 0 30 30" fill="none" xmlns="http://www.w3.org/2000/svg">
<path fill-rule="evenodd" clip-rule="evenodd" d="M13.8112 29.2241C14.3347 30.2586 15.6653 30.2586 16.1888 29.2241L16.7832 28.0494L16.7845 28.0469L29.5079 2.90302L29.8203 2.28574C30.3367 1.26523 29.6786 0 28.6314 0H27.7234H2.27661H1.36856C0.321384 0 -0.33668 1.26523 0.179721 2.28574L0.492077 2.90302L13.2155 28.0469L13.216 28.0478L13.8112 29.2241ZM13.6333 23.5793V2.48755H5.99012H4.5063C3.70018 2.48755 3.1936 3.4384 3.59113 4.20532L4.21448 5.40793L13.2241 22.7898L13.6333 23.5793ZM16.3665 23.5788L16.7754 22.7898L25.7851 5.40794L26.4084 4.20532C26.806 3.4384 26.2994 2.48755 25.4933 2.48755H24.0094H16.3665V23.5788Z" fill="white"/>
</svg>
