<svg width="44" height="44" viewBox="0 0 44 44" fill="none" xmlns="http://www.w3.org/2000/svg">
<path fill-rule="evenodd" clip-rule="evenodd" d="M7 36.9623V31.3333C7 24.0836 12.5105 18.121 19.5714 17.4053V16.1429C19.5714 15.5117 20.0831 15 20.7143 15C21.3455 15 21.8571 15.5117 21.8571 16.1429V17.3591C29.19 17.802 35 23.8892 35 31.3333V36.3159C31.542 40.409 26.4245 43 20.7143 43C15.3108 43 10.4381 40.6799 7 36.9623ZM19 29.5833C19 31.8385 17.2091 33.6667 15 33.6667C12.7909 33.6667 11 31.8385 11 29.5833C11 27.3282 12.7909 25.5 15 25.5C17.2091 25.5 19 27.3282 19 29.5833ZM27 33.6667C29.2091 33.6667 31 31.8385 31 29.5833C31 27.3282 29.2091 25.5 27 25.5C24.7909 25.5 23 27.3282 23 29.5833C23 31.8385 24.7909 33.6667 27 33.6667Z" fill="#F24841"/>
<path d="M43.5 17.9585C43.5 19.6154 42.1569 20.9585 40.5 20.9585C38.8431 20.9585 37.5 19.6154 37.5 17.9585C37.5 16.3017 38.8431 14.9585 40.5 14.9585C42.1569 14.9585 43.5 16.3017 43.5 17.9585Z" fill="#F24841"/>
<circle cx="16" cy="3" r="3" fill="#F24841"/>
<path d="M40.7756 19.7691C39.4735 11.1308 32.6463 4.30309 24.0084 3M17.9757 3.00241C8.3651 4.46018 1 12.7576 1 22.7752C1 32.7965 8.3705 41.0964 17.9863 42.5496C18.9692 42.6982 19.9756 42.7752 21 42.7752C22.0209 42.7752 23.024 42.6987 24.0038 42.5511C32.6458 41.2495 39.4762 34.4181 40.7764 25.7756" stroke="#F24841" stroke-width="2" stroke-linecap="round" stroke-linejoin="round"/>
</svg>
